# xmcd CD database file generated by Grip 3.2.0
# 
# Track frame offsets:
#       182
#       17712
#       26215
#       45825
#       59920
#       74047
#       90792
#       101165
#       124457
#       132880
#       157932
# 
# Disc length: 2332 seconds
# 
# Revision: 3
# Processed by: cddbd v1.5.2PL0 Copyright (c) Steve Scherf et al.
# Submitted via: Grip 3.2.0
# 
DISCID=96091a0b
DTITLE=Screamin' Jay Hawkins - Real Live
DYEAR=1983
DGENRE=Blues
TTITLE0=Deep in Love
TTITLE1=Your Kind of Love
TTITLE2=Get Down France
TTITLE3=All Night
TTITLE4=Serving Time
TTITLE5=Feast of the Mau-Mau
TTITLE6=I Feel Alright
TTITLE7=Poor Folks
TTITLE8=Mountain Jive
TTITLE9=Constipation Blues
TTITLE10=Alligator Wine
EXTD=
EXTT0=
EXTT1=
EXTT2=
EXTT3=
EXTT4=
EXTT5=
EXTT6=
EXTT7=
EXTT8=
EXTT9=
EXTT10=
PLAYORDER=
